Coordinates
version=1
nRows=8
nColumns=34
inDegrees=yes

Units are S.I. units (second, meters, Newtons, ...)
If the header above contains a line with 'inDegrees', this indicates whether rotational values are in degrees (yes) or radians (no).

endheader
time	pelvis_tilt	pelvis_list	pelvis_rotation	pelvis_tx	pelvis_ty	pelvis_tz	hip_flexion_r	hip_adduction_r	hip_rotation_r	knee_angle_r	ankle_angle_r	subtalar_angle_r	mtp_angle_r	hip_flexion_l	hip_adduction_l	hip_rotation_l	knee_angle_l	ankle_angle_l	subtalar_angle_l	mtp_angle_l	lumbar_extension	lumbar_bending	lumbar_rotation	arm_flex_r	arm_add_r	arm_rot_r	elbow_flex_r	pro_sup_r	arm_flex_l	arm_add_l	arm_rot_l	elbow_flex_l	pro_sup_l
     11.45000000	    -21.47972338	      2.76791643	      0.89625457	      0.71312927	      0.70366505	     -0.07276704	     78.51275681	    -13.29839935	     -1.21628754	     74.07721963	     17.04275365	    -22.44468922	      0.00000000	     76.17025375	    -10.04066388	     -6.32424621	     73.03175306	     21.75974902	    -15.37451798	      0.00000000	    -15.48402828	     -1.93975464	     -0.05570875	    120.55958898	     -8.51635622	     54.90996885	     25.15601111	     62.46518338	    117.27882561	     -8.10569932	     57.37809187	     18.23103077	     50.99697105
     11.46666670	    -21.69062450	      2.73297234	      1.01505631	      0.71121706	      0.69917924	     -0.07282353	     79.49979933	    -13.41604820	     -0.98244367	     75.11396434	     17.10469524	    -22.38179028	      0.00000000	     77.06106968	    -10.04740328	     -6.25648077	     73.90154097	     22.08516010	    -15.20317343	      0.00000000	    -16.05482508	     -1.77231877	     -0.39659669	    121.31739655	     -8.34021363	     54.78902515	     25.49029176	     62.39922051	    118.06466691	     -8.20749106	     57.34298063	     18.14502089	     50.83487661
     11.48333330	    -21.67874509	      2.67430739	      1.20628411	      0.70675718	      0.69053384	     -0.07239006	     80.64194856	    -13.54896472	     -0.74837212	     76.34316860	     17.36723266	    -22.41054607	      0.00000000	     78.08270731	    -10.03213148	     -6.08130980	     75.08325421	     22.48385643	    -15.10851950	      0.00000000	    -16.79158136	     -1.62462069	     -0.74197230	    122.12439304	     -8.14198371	     54.64332087	     25.72690448	     62.33472387	    118.92478431	     -8.33976337	     57.29445941	     18.00048655	     50.66731976
     11.50000000	    -21.79614538	      2.63085758	      1.27122074	      0.70775787	      0.68569023	     -0.07203828	     81.46125292	    -13.58507040	     -0.57645644	     77.43456420	     17.73223357	    -22.28741971	      0.00000000	     78.99688951	    -10.10958973	     -5.89983514	     76.11651294	     22.77222295	    -15.05924930	      0.00000000	    -17.33404878	     -1.52426663	     -0.88179698	    122.88441381	     -8.07607358	     54.48455489	     25.77802725	     62.27021616	    119.58703498	     -8.30806278	     57.26314238	     17.88530226	     50.49572021
     11.51666670	    -21.69176836	      2.52034037	      1.56891289	      0.70626214	      0.68086356	     -0.07184138	     82.07864488	    -13.89613735	     -0.60619404	     78.62266747	     18.83866368	    -21.44542424	      0.00000000	     79.84144581	    -10.02545687	     -5.59911582	     77.23056661	     23.54758071	    -14.33950937	      0.00000000	    -18.19591623	     -1.28905626	     -1.18944054	    123.66160661	     -7.82747900	     54.24679974	     25.56009583	     62.01018924	    120.42817270	     -8.08738435	     57.42177641	     17.07052674	     49.44331734
     11.53333330	    -21.68943106	      2.45733688	      1.78746610	      0.69634127	      0.66995994	     -0.07000735	     83.54590973	    -13.97977122	     -0.46106291	     79.95038654	     18.82685550	    -21.57962222	      0.00000000	     81.34257145	     -9.92532567	     -5.17837129	     78.64532265	     23.76692430	    -14.51415667	      0.00000000	    -19.00344144	     -1.31975135	     -1.37067577	    124.71877732	     -7.90299824	     54.06765321	     25.53103794	     61.96264688	    121.57532312	     -7.94075478	     57.35586263	     17.13037314	     49.28481275
     11.55000000	    -21.84301955	      2.40004290	      1.86757238	      0.70271332	      0.66705037	     -0.07041498	     84.37286739	    -14.01641805	     -0.41072769	     80.98808958	     18.95060099	    -21.72002933	      0.00000000	     82.16221312	     -9.99933237	     -4.89037369	     79.50296537	     23.67624434	    -14.67513685	      0.00000000	    -19.42482109	     -1.25849445	     -1.43352898	    125.34789943	     -7.89051799	     53.99351907	     25.50421195	     61.93751797	    122.13800253	     -7.95543392	     57.32087790	     17.04312289	     49.11916093
     11.56666670	    -21.97928563	      2.31723619	      2.05882387	      0.69700241	      0.65952662	     -0.06952450	     85.38821924	    -14.08129672	     -0.30089541	     82.00066963	     19.17708593	    -21.88364452	      0.00000000	     83.44441377	     -9.86039193	     -4.44586644	     80.73694558	     23.93499131	    -14.79006535	      0.00000000	    -20.01381614	     -1.24105629	     -1.62419192	    126.18586319	     -7.87181819	     53.89400356	     25.35643847	     61.91140996	    123.15611467	     -7.82664461	     57.23126521	     16.98365937	     48.94783063
